<svg xmlns="http://www.w3.org/2000/svg" xmlns:xlink="http://www.w3.org/1999/xlink" id="Layer_1" x="0" y="0" version="1.1" viewBox="0 0 461 480.9" xml:space="preserve" style="enable-background:new 0 0 461 480.9"><style type="text/css">.st0{fill:url(#SVGID_1_)}.st1{fill:teal}.st2{fill:url(#SVGID_2_)}.st3{fill:#fff}.st4{fill:url(#SVGID_3_)}.st5{fill:url(#SVGID_4_)}.st6{fill:url(#SVGID_5_)}.st7{fill:url(#SVGID_6_)}.st8{fill:url(#SVGID_7_)}.st9{fill:url(#SVGID_8_)}.st10{fill:url(#SVGID_9_)}.st11{fill:url(#SVGID_10_)}.st12{fill:url(#SVGID_11_)}.st13{fill:url(#SVGID_12_)}.st14{fill:url(#SVGID_13_)}.st15{fill:url(#SVGID_14_)}.st16{fill:#5b7484}.st17{fill:url(#SVGID_15_)}.st18{fill:url(#SVGID_16_)}.st19{fill:url(#SVGID_17_)}.st20{fill:#141f38}.st21{fill:url(#SVGID_18_)}.st22{fill:url(#SVGID_19_)}.st23{fill:url(#SVGID_20_)}.st24{fill:url(#SVGID_21_)}.st25{fill:url(#SVGID_22_)}.st26{fill:#435660}.st27{opacity:.31;fill:url(#SVGID_23_);enable-background:new}.st28{fill:#143a56}.st29{fill:url(#SVGID_24_)}.st30{fill:#1a9c9c}.st31{fill:url(#SVGID_25_)}.st32{fill:url(#SVGID_26_)}.st33{fill:url(#SVGID_27_)}.st34{fill:url(#SVGID_28_)}.st35{fill:url(#SVGID_29_)}.st36{fill:url(#SVGID_30_)}.st37{fill:#0c1426}.st38{fill:url(#SVGID_31_)}</style><linearGradient id="SVGID_1_" x1="88.182" x2="111.445" y1="420.698" y2="494.571" gradientTransform="matrix(1 0 0 1 0 -324)" gradientUnits="userSpaceOnUse"><stop offset="1" style="stop-color:teal"/><stop offset="1" style="stop-color:#000"/></linearGradient><path d="M134.5,134.2H52.2c-1.6,0-3-1.3-3-3V94.7c0-1.6,1.3-3,3-3h82.2c1.6,0,3,1.3,3,3v36.6	C137.5,132.9,136.1,134.2,134.5,134.2z" class="st0"/><path d="M122.4,134.2h10.3V147L122.4,134.2z" class="st1"/><path d="M329.7,46.6h82.2c1.6,0,3-1.3,3-3V7.1c0-1.6-1.3-3-3-3h-82.2c-1.6,0-3,1.3-3,3v36.6	C326.7,45.3,328,46.6,329.7,46.6z" class="st1"/><path d="M341.7,46.6h-10.2v12.8L341.7,46.6z" class="st1"/><linearGradient id="SVGID_2_" x1="220.442" x2="204.255" y1="383.553" y2="391.658" gradientTransform="matrix(1 0 0 1 0 -324)" gradientUnits="userSpaceOnUse"><stop offset="0" style="stop-color:#047378"/><stop offset="1" style="stop-color:#123f59"/></linearGradient><path d="M202,63.2l10.8-14l13.3,21.7L202,63.2z" class="st2"/><path d="M172.6,4.3c-16.3,8.1-22.9,27.9-14.7,44.2c8.1,16.3,27.9,22.9,44.2,14.7c16.3-8.1,22.9-27.9,14.7-44.2	C208.6,2.8,188.8-3.8,172.6,4.3z" class="st1"/><path d="M196,43.2c0.9-1.9,3.2-2.6,5-1.7c1.9,0.9,2.6,3.2,1.7,5c-0.9,1.8-3.2,2.6-5,1.7C195.9,47.3,195.1,45.1,196,43.2	z" class="st3"/><linearGradient id="SVGID_3_" x1="357.804" x2="357.804" y1="652.296" y2="545.773" gradientTransform="matrix(1 0 0 1 0 -324)" gradientUnits="userSpaceOnUse"><stop offset="0" style="stop-color:#143a56"/><stop offset="1" style="stop-color:#141f38"/></linearGradient><path d="M342.6,318.8c11.2-1.4,18.4-5.9,21.6-13.4c8.8-21-13.2-62.8-22.4-77.1l-0.2-0.3c-0.6-0.9-0.4-2.1,0.5-2.7l4-3	c1-0.7,2.3-0.5,2.9,0.5c1.5,2.3,35.9,56.3,23.2,86.6c-4.5,10.8-14.2,17.2-28.7,19c-1.1,0.1-2.2-0.7-2.3-1.8l-0.6-5.5	C340.7,319.9,341.5,318.9,342.6,318.8L342.6,318.8z" class="st4"/><linearGradient id="SVGID_4_" x1="324.907" x2="370.887" y1="537.3" y2="537.3" gradientTransform="matrix(1 0 0 1 0 -324)" gradientUnits="userSpaceOnUse"><stop offset="0" style="stop-color:#143a56"/><stop offset="1" style="stop-color:#141f38"/></linearGradient><path d="M306.4,262.3h49.3c13.6,0,24.7-15.1,24.7-33.7V198c0-18.6-11-33.7-24.7-33.7h-49.3c-13.6,0-24.7,15.1-24.7,33.7	v30.5C281.7,247.2,292.8,262.3,306.4,262.3z" class="st5"/><linearGradient id="SVGID_5_" x1="232" x2="359.1" y1="657.75" y2="657.75" gradientTransform="matrix(1 0 0 1 0 -324)" gradientUnits="userSpaceOnUse"><stop offset="0" style="stop-color:#143a56"/><stop offset="1" style="stop-color:#141f38"/></linearGradient><path d="M359.1,328.5H232V339h127.1V328.5z" class="st6"/><linearGradient id="SVGID_6_" x1="285.468" x2="305.691" y1="674.95" y2="674.95" gradientTransform="matrix(1 0 0 1 0 -324)" gradientUnits="userSpaceOnUse"><stop offset="0" style="stop-color:#143a56"/><stop offset="1" style="stop-color:#141f38"/></linearGradient><path d="M305.7,347.8h-20.2v6.3h20.2V347.8z" class="st7"/><linearGradient id="SVGID_7_" x1="291.544" x2="299.579" y1="697.25" y2="697.25" gradientTransform="matrix(1 0 0 1 0 -324)" gradientUnits="userSpaceOnUse"><stop offset="0" style="stop-color:#143a56"/><stop offset="1" style="stop-color:#141f38"/></linearGradient><path d="M299.6,354.1h-8v38.3h8V354.1z" class="st8"/><linearGradient id="SVGID_8_" x1="290.411" x2="300.73" y1="738.75" y2="738.75" gradientTransform="matrix(1 0 0 1 0 -324)" gradientUnits="userSpaceOnUse"><stop offset="0" style="stop-color:#143a56"/><stop offset="1" style="stop-color:#141f38"/></linearGradient><path d="M300.7,392.5h-10.3V437h10.3V392.5z" class="st9"/><linearGradient id="SVGID_9_" x1="277.3" x2="313.8" y1="667.4" y2="667.4" gradientTransform="matrix(1 0 0 1 0 -324)" gradientUnits="userSpaceOnUse"><stop offset="0" style="stop-color:#143a56"/><stop offset="1" style="stop-color:#141f38"/></linearGradient><path d="M300.8,339h-10.5h-13l5.3,8.8h7.7h10.5h7.7l5.3-8.8H300.8z" class="st10"/><linearGradient id="SVGID_10_" x1="295.7" x2="295.7" y1="627.853" y2="647.11" gradientTransform="matrix(1 0 0 1 0 -324)" gradientUnits="userSpaceOnUse"><stop offset="0" style="stop-color:#143a56"/><stop offset="1" style="stop-color:#141f38"/></linearGradient><path d="M289.3,292.5c0.1,0,0.1,0,0.2,0c0.4,0,0.9,0,1.3-0.1c0.7,0,1.5-0.1,2.3-0.1c0.2,0,0.3,0,0.5,0	c0.4,0,0.8,0,1.3,0l0,0c0.3,0,0.5,0,0.8,0s0.5,0,0.8,0l0,0c0.4,0,0.9,0,1.3,0c0.2,0,0.3,0,0.5,0c0.8,0,1.6,0.1,2.3,0.1	c0.4,0,0.8,0,1.3,0.1c0.1,0,0.1,0,0.2,0c20.9,1,63.1,6.6,55.1,36.1h-60.7h-1.6h-60.7C226.2,299,268.4,293.5,289.3,292.5z" class="st11"/><linearGradient id="SVGID_11_" x1="241.188" x2="292.7" y1="765.2" y2="765.2" gradientTransform="matrix(1 0 0 1 0 -324)" gradientUnits="userSpaceOnUse"><stop offset="0" style="stop-color:#143a56"/><stop offset="1" style="stop-color:#141f38"/></linearGradient><path d="M292.7,424.4c-18.6,8.1-45.1,20.4-48.6,24.6c-2.5,2.9-3,6.4-2.9,9l51.5-23.4V424.4z" class="st12"/><linearGradient id="SVGID_12_" x1="243.134" x2="255.861" y1="782.4" y2="782.4" gradientTransform="matrix(1 0 0 1 0 -324)" gradientUnits="userSpaceOnUse"><stop offset="0" style="stop-color:#143a56"/><stop offset="1" style="stop-color:#141f38"/></linearGradient><path d="M255.9,458.4c0,3.5-2.8,6.4-6.4,6.4c-3.5,0-6.4-2.8-6.4-6.4c0-3.5,2.8-6.4,6.4-6.4	C253,452.1,255.9,454.9,255.9,458.4z" class="st13"/><linearGradient id="SVGID_13_" x1="298.5" x2="350.01" y1="765.2" y2="765.2" gradientTransform="matrix(1 0 0 1 0 -324)" gradientUnits="userSpaceOnUse"><stop offset="0" style="stop-color:#143a56"/><stop offset="1" style="stop-color:#141f38"/></linearGradient><path d="M298.5,434.6L350,458c0.1-2.6-0.5-6.1-2.9-9c-3.5-4.2-30-16.5-48.6-24.6V434.6z" class="st14"/><linearGradient id="SVGID_14_" x1="335.28" x2="348.006" y1="782.4" y2="782.4" gradientTransform="matrix(1 0 0 1 0 -324)" gradientUnits="userSpaceOnUse"><stop offset="0" style="stop-color:#143a56"/><stop offset="1" style="stop-color:#141f38"/></linearGradient><path d="M335.3,458.4c0,3.5,2.8,6.4,6.4,6.4s6.4-2.8,6.4-6.4c0-3.5-2.8-6.4-6.4-6.4S335.3,454.9,335.3,458.4z" class="st15"/><path d="M229.2,225.7c0,0,5.4-4,8.9-9.1c6.6-9.6,11.4-20.8,15.1-31.9c3.1-9.1,5.4-18.4,6.9-28	c1.3-8.4,7.4-36-10.5-33.4c-4.5,0.6-7.7,3.9-9.8,7.3c-9.6,15.5-24.2,94-24.2,94L229.2,225.7z" class="st16"/><linearGradient id="SVGID_15_" x1="198.3" x2="161.671" y1="454.687" y2="448.843" gradientTransform="matrix(1 0 0 1 0 -324)" gradientUnits="userSpaceOnUse"><stop offset="0" style="stop-color:#ffd1c1"/><stop offset=".489" style="stop-color:#ffcfbf"/><stop offset=".665" style="stop-color:#ffcab8"/><stop offset=".79" style="stop-color:#ffc0ad"/><stop offset=".892" style="stop-color:#ffb29c"/><stop offset=".978" style="stop-color:#ffa086"/><stop offset="1" style="stop-color:#ff9a7f"/></linearGradient><path d="M184.7,122.8L166.8,101c0,0-2.8,3.4-1.9,6.4c0.9,3-0.3,5.3,0.1,8.1c0.4,2.7-1.6,9.5,0.3,13.8	c1.8,4.3,8.7,6.5,10.7,10.5s5.7,12.9,5.7,12.9l14.3-7.6l-5.6-11.7c0,0,2.6-14.5-4.7-22.8L184.7,122.8z" class="st17"/><linearGradient id="SVGID_16_" x1="174.952" x2="234.479" y1="501.379" y2="510.878" gradientTransform="matrix(1 0 0 1 0 -324)" gradientUnits="userSpaceOnUse"><stop offset="0" style="stop-color:#f9fbfc"/><stop offset=".292" style="stop-color:#f1f6fd"/><stop offset=".733" style="stop-color:#dde6fe"/><stop offset=".997" style="stop-color:#cddbff"/></linearGradient><path d="M215.7,224.7c0,0,19.5-8.6,14.7-22.3S194,139.6,194,139.6l-14.6,9.9C179.4,149.5,200.7,218,215.7,224.7z" class="st18"/><path d="M218.9,227.8c0,0,19.5-8.6,14.7-22.3s-34.7-63.9-34.7-63.9L178.3,155C178.3,155,199.8,225.8,218.9,227.8z" class="st16"/><linearGradient id="SVGID_17_" x1="145.048" x2="145.048" y1="777.824" y2="716.806" gradientTransform="matrix(1 0 0 1 0 -324)" gradientUnits="userSpaceOnUse"><stop offset="0" style="stop-color:#ffd1c1"/><stop offset=".281" style="stop-color:#ffcebe"/><stop offset=".51" style="stop-color:#ffc6b4"/><stop offset=".722" style="stop-color:#ffb8a2"/><stop offset=".922" style="stop-color:#ffa48b"/><stop offset="1" style="stop-color:#ff9a7f"/></linearGradient><path d="M109.7,440.5c0.1-0.1,0.2-0.1,0.2-0.2c0.9-0.7,1.9-1.3,2.9-1.9c-0.4,0.1-0.8,0.3-1.1,0.4	c0.3-0.1,0.7-0.3,1.2-0.4c2.2-1.1,4.6-1.9,6.9-2.5c0.8-0.2,1.5-0.4,2.3-0.6c3.5-1.2,6.7-2.2,7.7-2.5c0.1-0.1,0.3-0.1,0.4-0.2	c1.6-1.1,18-12,24.9-17.9c0.2-0.2,0.4-0.3,0.6-0.5c1.6-10.2,1.1-21.3,1.1-21.3l24.8-0.1c0,0-3.6,14.9-3.1,22.8	c0,0.6,1.3,2.9,1.3,3.1c0.3,0.5,0.6,1.1,0.9,1.6c0.3,0.6,0.6,1.1,0.9,1.7c0.8,1.8,1.8,3.5,2.4,5.4c0.6,2.1,0.8,4.4,0.8,6.6	c0,0.7,0,1.5,0,2.2c0,1.4-0.2,2.9-0.9,4.1c-1.1,1.9-3.3,2.9-5.5,3.5c-4.3,1.3-8.9,1.8-13.3,2.8c-8.1,2-16.3,5.2-24.7,6.5	c-9.3,1.5-18.7-0.2-28-0.5c-2.5-0.1-6.3-0.9-7-3.7C104.7,446.2,107.7,442.2,109.7,440.5z" class="st19"/><path d="M105.3,447.9c0,0.4,0,0.8,0.1,1.1c0.5,1.9,2.4,2.9,4.4,3.4c0.9,0.2,1.8,0.3,2.6,0.3c4.7,0.1,9.3,0.6,14,0.9	c1.8,0.1,3.5,0.2,5.2,0.2c0.6,0,1.2,0,1.9,0c1.1,0,2.2-0.1,3.4-0.2c0.6-0.1,1.2-0.1,1.7-0.2c0.6-0.1,1.2-0.1,1.7-0.2	c2.1-0.3,4.2-0.8,6.3-1.3c2.6-0.6,5.2-1.4,7.7-2.2c3.6-1.1,7.2-2.2,10.7-3c1.1-0.3,2.2-0.5,3.3-0.7s2.2-0.4,3.3-0.6	c2.2-0.4,5.4-0.9,7.6-1.5c1.3-0.4,2.7-0.9,3.8-1.7c0.2-0.2,0.4-0.3,0.6-0.5c0.4-0.4,0.8-0.8,1-1.3c0.3-0.5,0.4-1,0.6-1.5	c0-0.2,0.1-0.3,0.1-0.5c0.1-0.7,0.2-1.4,0.2-2.1c0-0.8,0-2.2-0.1-3.7c0-0.3,0-0.6-0.1-0.9c-0.1-0.6-0.1-1.2-0.2-1.8	c-0.1-0.4-0.1-0.9-0.2-1.3c-0.1-0.6-0.2-1.1-0.4-1.6c-0.1-0.3-0.2-0.6-0.3-0.8c-0.6-1.5-1.5-2.9-2.2-4.3c-0.1-0.2-1.1-1.9-1-2	c-8.2,5.1-23.4,4.1-28.8-3.8c-8.6,6.7-21.2,15.8-22.4,16.7c-0.1,0-0.1,0-0.2,0.1c-0.1,0-0.2,0.1-0.2,0.1c-1,0.3-4.1,1.3-7.7,2.5	c-0.8,0.2-1.5,0.4-2.3,0.6c-0.6,0.1-1.1,0.3-1.7,0.5c-0.1,0-0.2,0.1-0.3,0.1c-0.5,0.2-1.1,0.3-1.6,0.5c-1.2,0.4-2.3,0.9-3.4,1.5	c-0.4,0.1-0.8,0.3-1.2,0.4c0.4-0.1,0.7-0.3,1.1-0.4c-0.4,0.2-0.8,0.4-1.2,0.6c-0.2,0.1-0.3,0.2-0.4,0.3c-0.1,0.1-0.3,0.2-0.4,0.3	c-0.3,0.2-0.6,0.4-0.9,0.7c-0.1,0.1-0.2,0.1-0.2,0.2c-0.1,0.1-0.3,0.2-0.4,0.3l0,0c-0.2,0.2-0.4,0.4-0.6,0.6	c-0.6,0.6-1.2,1.4-1.8,2.3c-0.1,0.2-0.2,0.4-0.4,0.6c-0.2,0.4-0.4,0.8-0.6,1.2c-0.2,0.4-0.3,0.8-0.4,1.2	C105.4,447.1,105.3,447.5,105.3,447.9L105.3,447.9z M129.7,432.8c-1.8,0.8-3.6,1.4-5.5,2c-0.1,0-0.1,0-0.2,0	c-0.6,0.2-1.2,0.3-1.9,0.5C124.7,434.5,127.2,433.6,129.7,432.8z" class="st20"/><linearGradient id="SVGID_18_" x1="271.279" x2="271.277" y1="789.128" y2="698.332" gradientTransform="matrix(1 0 0 1 0 -324)" gradientUnits="userSpaceOnUse"><stop offset="0" style="stop-color:#ffd1c1"/><stop offset=".281" style="stop-color:#ffcebe"/><stop offset=".51" style="stop-color:#ffc6b4"/><stop offset=".722" style="stop-color:#ffb8a2"/><stop offset=".922" style="stop-color:#ffa48b"/><stop offset="1" style="stop-color:#ff9a7f"/></linearGradient><path d="M241.2,454.9c0-0.1,0.1-0.2,0.1-0.3c0.3-1.1,0.7-2.2,1.3-3.2c-0.2,0.3-0.5,0.6-0.7,1c0.2-0.3,0.4-0.6,0.7-1	c1.1-2.2,2.6-4.2,4.2-6.1c0.5-0.6,1-1.2,1.5-1.8c2.2-3,4.2-5.7,4.8-6.5c0.1-0.1,0.2-0.3,0.2-0.4c0.6-1.8,7.7-20.3,9.9-29.1	c0.1-0.3,0.1-0.5,0.2-0.8c-4.6-9.3-11.5-18-11.5-18l20.2-14.5c0,0,5.7,14.2,10.7,20.4c0.4,0.5,2.7,1.7,2.9,1.7	c0.6,0.3,1.1,0.5,1.7,0.8s1.2,0.6,1.7,0.9c1.7,1,3.5,1.8,5.1,3c1.7,1.3,3.2,3.1,4.5,4.9c0.5,0.6,0.9,1.2,1.3,1.8	c0.8,1.2,1.5,2.5,1.7,3.9c0.2,2.2-1,4.3-2.4,6c-2.8,3.6-6.2,6.6-9.2,10c-5.4,6.3-10.3,13.7-16.4,19.6c-6.7,6.6-15.3,10.7-23.1,15.9	c-2,1.4-5.6,2.9-7.8,1C240.5,462.4,240.6,457.4,241.2,454.9z" class="st21"/><path d="M242,463.4c0.2,0.3,0.4,0.6,0.7,0.8c1.5,1.3,3.7,1,5.5,0.2c0.8-0.3,1.6-0.8,2.3-1.2c3.9-2.6,8-4.9,11.9-7.4	c1.5-0.9,2.9-1.9,4.4-2.9c0.5-0.4,1-0.7,1.5-1.1c0.9-0.7,1.8-1.4,2.6-2.1c0.4-0.4,0.9-0.8,1.3-1.1c0.4-0.4,0.9-0.8,1.3-1.2	c1.5-1.5,3-3.1,4.3-4.7c1.7-2,3.4-4.2,5.1-6.3c2.3-3,4.6-5.9,7-8.7c0.7-0.9,1.5-1.7,2.3-2.5s1.6-1.6,2.4-2.4	c1.6-1.6,3.9-3.8,5.3-5.6c0.8-1.1,1.7-2.3,2.1-3.6c0.1-0.3,0.2-0.5,0.2-0.8c0.1-0.5,0.1-1.1,0.1-1.6c-0.1-0.5-0.2-1-0.4-1.5	c-0.1-0.2-0.1-0.3-0.2-0.5c-0.3-0.6-0.7-1.3-1.1-1.9c-0.5-0.7-1.2-1.8-2.2-2.9c-0.2-0.2-0.4-0.5-0.6-0.7c-0.4-0.4-0.8-0.9-1.2-1.3	c-0.3-0.3-0.6-0.6-0.9-0.9c-0.4-0.4-0.8-0.8-1.2-1.1c-0.2-0.2-0.5-0.3-0.7-0.5c-1.3-0.9-2.9-1.5-4.3-2.3c-0.2-0.1-2-0.9-2-1.1	c-3.7,8.9-16.7,16.9-25.6,13.6c-3.1,10.4-8.1,25.2-8.6,26.6c0,0.1-0.1,0.1-0.1,0.2s-0.1,0.1-0.1,0.2c-0.6,0.8-2.6,3.5-4.8,6.5	c-0.5,0.6-1,1.2-1.5,1.8c-0.4,0.4-0.7,0.9-1.1,1.3c-0.1,0.1-0.1,0.2-0.2,0.2c-0.3,0.4-0.7,0.9-1,1.4c-0.7,1-1.4,2.1-1.9,3.1	c-0.3,0.4-0.5,0.7-0.7,1c0.2-0.3,0.4-0.6,0.7-1c-0.2,0.4-0.4,0.8-0.6,1.2c-0.1,0.2-0.1,0.3-0.2,0.5c-0.1,0.1-0.1,0.3-0.2,0.4	c-0.1,0.4-0.3,0.7-0.3,1.1c0,0.1-0.1,0.2-0.1,0.3c0,0.2-0.1,0.3-0.1,0.5l0,0c-0.1,0.3-0.1,0.5-0.1,0.8c-0.1,0.9-0.2,1.9-0.1,2.9	c0,0.2,0,0.4,0.1,0.7c0,0.4,0.1,0.9,0.2,1.3c0.1,0.4,0.2,0.8,0.3,1.2C241.6,462.8,241.7,463.1,242,463.4L242,463.4z M253.1,437	c-1,1.7-2.1,3.3-3.4,4.8l-0.1,0.1c-0.4,0.5-0.8,1-1.2,1.5C249.9,441.3,251.5,439.1,253.1,437z" class="st20"/><path d="M165.2,254.3c23.9-7.9,49.5-10.5,74.4-12.5c12.4-1,26.8-3.2,39.3-4.2c27.4-2.3,48.7-10.1,44.5,18.3	c-1.5,10.3-3.7,21.6-10,30.5c-6.8,9.6-18.5,13.8-29.7,15.7c-12.6,2.2-25.7,1.9-38.5,1.4c-11.2-0.4-22.5-1.4-33.4-4	c-13.8-3.3-27.5-6.9-41-11C153.9,271.3,165.2,254.3,165.2,254.3z" class="st20"/><path d="M165.1,255.9c0,0-5.4-0.7-6.3,13.9c-0.9,14.6-3.7,132.9-3.7,132.9l27,5.7c0,0,26.1-84.1,14.3-135.7	C196.3,272.6,185.7,247.9,165.1,255.9z" class="st20"/><path d="M180,263.1c0.2-0.2,0.4-0.4,0.6-0.5c4.2-3.8,10.6-4.9,16-5.7c38.8-6.4,79.9-9.2,119.1-12	c6.6-0.5,13.3-2,17.8,3.7c3.5,4.5,4.3,10.8,4.5,16.3c0.2,6.3-0.2,12.8-2.7,18.6c-2.9,7-8.7,12.5-15.1,16.6	c-15.1,9.4-33.8,10.9-51.6,10.2c-17.6-0.7-36.9-3.6-53.9-8.1c-13.4-3.6-30.8-7.4-36.7-21.8C175.7,274.6,175.4,268,180,263.1z" class="st20"/><linearGradient id="SVGID_19_" x1="287.654" x2="287.654" y1="574.909" y2="432.957" gradientTransform="matrix(1 0 0 1 0 -324)" gradientUnits="userSpaceOnUse"><stop offset="0" style="stop-color:#ffd1c1"/><stop offset=".22" style="stop-color:#fcb"/><stop offset=".508" style="stop-color:#ffbeab"/><stop offset=".833" style="stop-color:#ffa890"/><stop offset="1" style="stop-color:#ff9a7f"/></linearGradient><path d="M324.9,123.8c-6.8-11.5-19.3-15.3-32-14.8c-6.9,0.3-13.8,1.7-20.5,3.5c-6.5,1.7-14.9,3.3-19.8,8	c-6.1,5.8-7.3,14.4-7.9,22.4c-0.6,8.6-0.7,17.1-0.5,25.7c0.4,16.5,1.6,32.9,1,49.4c-0.3,8.6-0.6,18.6,8.6,22.6	c4.8,2.1,10.3,2.2,15.5,2.5c8.5,0.5,17.1,1.3,25.5,2.9c7.9,1.6,15.4,4.7,23.6,4.9c6.9,0.2,12.6-3.1,12.8-10.4	c0.1-7.5-4.2-16.5-5.4-24c-2.3-14.4-2.9-29.4-0.2-43.7C328.6,156.9,333.9,138.9,324.9,123.8z" class="st22"/><linearGradient id="SVGID_20_" x1="233.561" x2="346.747" y1="541.445" y2="476.07" gradientTransform="matrix(1 0 0 1 0 -324)" gradientUnits="userSpaceOnUse"><stop offset="0" style="stop-color:#f9fbfc"/><stop offset=".292" style="stop-color:#f1f6fd"/><stop offset=".733" style="stop-color:#dde6fe"/><stop offset=".997" style="stop-color:#cddbff"/></linearGradient><path d="M259.9,112.6c4.9-3,9.5-5,11.7-5.4l0.2,20.3l30.4-22.9c0.3-0.4,11.4,4.9,12.7,5.4c28.4,12.6,22,50.1,21.9,74.9	c0,12.2-0.1,24.4-0.1,36.6c0,6.3-0.3,12.5-0.1,18.8c0.2,5.6-1.3,8.1-6.6,11.1c-5.9,3.3-11.7,1.2-17.7-0.6c-6.9-2-14-3.9-21.1-4.9	c-9.5-1.4-19.1-2-28.6-2.3c-5.3-0.1-10.1,0.1-13.7-2.1V132.4C254.2,127,258.1,120.1,259.9,112.6z" class="st23"/><path d="M240.9,132.8c0.6-8.9,17.1-20.1,26.2-24.1c-3.4,18.8-2.2,39.1-5.1,56.4c-4.4,26.3-7,51.7-5.8,78.4	c-5.3-0.3-9.6-1.7-12-8.2c-1.3-3.6-1.5-7.6-1.4-11.5C243.5,189,238.3,167.6,240.9,132.8z" class="st16"/><linearGradient id="SVGID_21_" x1="284.183" x2="284.183" y1="398" y2="443.295" gradientTransform="matrix(1 0 0 1 0 -324)" gradientUnits="userSpaceOnUse"><stop offset="0" style="stop-color:#ffd1c1"/><stop offset=".286" style="stop-color:#ffcebe"/><stop offset=".514" style="stop-color:#ffc6b4"/><stop offset=".722" style="stop-color:#ffb8a3"/><stop offset=".916" style="stop-color:#ffa58c"/><stop offset="1" style="stop-color:#ff9a7f"/></linearGradient><path d="M271.6,86.9c-0.1,3.8-0.1,7.6-0.2,11.5c0,0-0.8,17,1.5,19.4c4.1,4.3,24.2,0,24.2-13.3L296.4,74L271.6,86.9z" class="st24"/><linearGradient id="SVGID_22_" x1="290.25" x2="290.25" y1="454.838" y2="423.375" gradientTransform="matrix(1 0 0 1 0 -324)" gradientUnits="userSpaceOnUse"><stop offset="0" style="stop-color:#f9fbfc"/><stop offset=".307" style="stop-color:#f0f5fd"/><stop offset=".803" style="stop-color:#d8e3fe"/><stop offset=".997" style="stop-color:#cddbff"/></linearGradient><path d="M304.8,104.7l-15.5,26.1l-13.6-11.4l22.3-20L304.8,104.7z" class="st25"/><path d="M301.9,102.4c-0.9-0.3-6.2,7.5-11.6,17s-16.7,26.4-16.7,62.3c0,16.4,6.4,68.2,6.4,68.2s45.3,7.9,58.1,35	c0,0,7.1-4.4,5.6-29.9s-1.5-79-1.5-103.7C342.2,126.6,333.1,111.8,301.9,102.4z" class="st16"/><path d="M299.1,105.3l1.1,25.5l-12.2,5.6l6.1,17.1c0,0-29,49.3-28.9,49.1c0.1-0.2,25.8-49.4,25.8-49.4l-6.8-17.5	l13.9-6.4l-0.8-21.2L299.1,105.3z" class="st26"/><linearGradient id="SVGID_23_" x1="326.223" x2="292.966" y1="513.68" y2="502.48" gradientTransform="matrix(1 0 0 1 0 -324)" gradientUnits="userSpaceOnUse"><stop offset="0" style="stop-color:#07154b"/><stop offset=".264" style="stop-color:#0c174e"/><stop offset=".584" style="stop-color:#1b1d57"/><stop offset=".932" style="stop-color:#332767"/><stop offset="1" style="stop-color:#39296a"/></linearGradient><path d="M279.1,216.2c5.4-17.1,19.9-61.1,29-74.2c2.5-3.6,5-19.1,10-19.7c20-2.1,13.3,39.6,11.5,48.5	c-2.1,10.3-5,20.3-8.8,30c-4.6,11.8-10.4,23.7-18.1,33.8c-4.2,5.4-10.2,9.5-10.3,9.5l-13.1-17.8	C279.3,223.2,279.2,219.7,279.1,216.2z" class="st27"/><path d="M265.2,122.4l5.8,18.9l8.9-18.5l-5.8-0.2l-2.4,4.9l0.1-4.9L265.2,122.4z" class="st28"/><path d="M269.9,135.8h3.4l4.5,80.1l-9.6,9.4l-8.3-10.6L269.9,135.8z" class="st28"/><linearGradient id="SVGID_24_" x1="295.5" x2="247.044" y1="396.452" y2="396.452" gradientTransform="matrix(1 0 0 1 0 -324)" gradientUnits="userSpaceOnUse"><stop offset="0" style="stop-color:#ffd1c1"/><stop offset=".489" style="stop-color:#ffcfbf"/><stop offset=".665" style="stop-color:#ffcab8"/><stop offset=".79" style="stop-color:#ffc0ad"/><stop offset=".892" style="stop-color:#ffb29c"/><stop offset=".978" style="stop-color:#ffa086"/><stop offset="1" style="stop-color:#ff9a7f"/></linearGradient><path d="M295.5,47.8l-1.3,12.8l-2,19.6l-0.6,5.5c-16.6,18.3-37.3,16.3-42.4,8c-5.1-8.3,0.1-48.6,0.1-48.6L295.5,47.8z" class="st29"/><path d="M289.2,49.3c-12.6,2.1-48.8,9.8-55-15.3c-6.3-25.2,18.1-28.1,29.7-15c11.5,13.2,22.7-9.5,37.6,7.7	c0,0,10.2-1,13.6,9.1c5.2,15.7-18.3,55-18.3,55L293.6,73l-3.4-0.9L289.2,49.3z" class="st28"/><path d="M277.8,22.4c0,0,23.7-1.5,23.2,16.7s-3.3,25.5-3.3,25.5l6.1,0.7c0,0,18-46.4-18.7-47.4c0,0-3.8-0.5-6,1.5	C276.9,21.4,277.8,22.4,277.8,22.4z" class="st30"/><linearGradient id="SVGID_25_" x1="291.317" x2="302.678" y1="388.161" y2="394.724" gradientTransform="matrix(1 0 0 1 0 -324)" gradientUnits="userSpaceOnUse"><stop offset="0" style="stop-color:#ffd1c1"/><stop offset=".226" style="stop-color:#ffcdbc"/><stop offset=".495" style="stop-color:#ffc1ae"/><stop offset=".784" style="stop-color:#ffad96"/><stop offset="1" style="stop-color:#ff9a7f"/></linearGradient><path d="M304.2,59.5c3.3,5-1.2,15-11.6,18l1.5-18.1C295.3,57,302,56.2,304.2,59.5z" class="st31"/><path d="M290.3,232.2c0,0,6.1-4.1,10.3-9.5c7.7-10.1,13.5-22,18.1-33.8c3.8-9.7,6.7-19.7,8.8-30	c1.8-9,9.7-38.5-10.3-36.4c-5,0.5-8.7,3.9-11.2,7.5c-11.3,16.3-31.2,81.1-31.2,81.1L290.3,232.2z" class="st16"/><linearGradient id="SVGID_26_" x1="250.702" x2="210.076" y1="452.65" y2="452.65" gradientTransform="matrix(1 0 0 1 0 -324)" gradientUnits="userSpaceOnUse"><stop offset="0" style="stop-color:#ffd1c1"/><stop offset=".489" style="stop-color:#ffcfbf"/><stop offset=".665" style="stop-color:#ffcab8"/><stop offset=".79" style="stop-color:#ffc0ad"/><stop offset=".892" style="stop-color:#ffb29c"/><stop offset=".978" style="stop-color:#ffa086"/><stop offset="1" style="stop-color:#ff9a7f"/></linearGradient><path d="M234.7,122.4l-23.2-20c0,0-2.5,4.1-1.1,7.2s0.5,5.8,1.4,8.6c0.9,2.9-0.2,10.4,2.5,14.7s10.6,5.4,13.5,9.3	c2.9,4,8.4,12.7,8.4,12.7l14.4-10.8l-8.1-11.5c0,0,0.5-16-8.8-23.5L234.7,122.4z" class="st32"/><linearGradient id="SVGID_27_" x1="231.6" x2="304.837" y1="507.9" y2="507.9" gradientTransform="matrix(1 0 0 1 0 -324)" gradientUnits="userSpaceOnUse"><stop offset="0" style="stop-color:#f9fbfc"/><stop offset=".292" style="stop-color:#f1f6fd"/><stop offset=".733" style="stop-color:#dde6fe"/><stop offset=".997" style="stop-color:#cddbff"/></linearGradient><path d="M290.4,232.2c0,0,20.4-13,12.7-27.1c-7.7-14.1-29-31.4-56.8-69.5l-14.7,13.5	C231.6,149.1,272.5,227.7,290.4,232.2z" class="st33"/><path d="M291,231.8c0,0,21.5-12.5,13.9-26.5c-7.7-14.1-23.7-28.3-51.5-66.4l-21.7,18.3	C231.6,157.1,273,227.3,291,231.8z" class="st16"/><path d="M177.9,270.5c-0.4,0.8-0.8,1.6-1,2.4c-1,4.3,2,9.4,4.2,12.9c7.7,12.5,74.2,112,74.2,112l25.6-11	c-3.8-11.9-8.5-23.5-13.4-34.9c-9.7-22.7-21-45.2-35.7-65.2c-9.2-12.5-19.1-25.9-36.2-25.5C189,261.4,181.4,264.5,177.9,270.5z" class="st20"/><linearGradient id="SVGID_28_" x1="267.801" x2="267.801" y1="451.5" y2="425.068" gradientTransform="matrix(1 0 0 1 0 -324)" gradientUnits="userSpaceOnUse"><stop offset="0" style="stop-color:#e7e6ff"/><stop offset=".339" style="stop-color:#c9d2f8"/><stop offset=".764" style="stop-color:#aabdf1"/><stop offset="1" style="stop-color:#9eb5ee"/></linearGradient><path d="M271.7,127.5l-7.9-6.2l7.4-20.3C271.2,101,272.1,127.1,271.7,127.5z" class="st34"/><linearGradient id="SVGID_29_" x1="275.8" x2="275.8" y1="451.478" y2="443.392" gradientTransform="matrix(1 0 0 1 0 -324)" gradientUnits="userSpaceOnUse"><stop offset="0" style="stop-color:#e7e6ff"/><stop offset=".339" style="stop-color:#c9d2f8"/><stop offset=".764" style="stop-color:#aabdf1"/><stop offset="1" style="stop-color:#9eb5ee"/></linearGradient><path d="M275.7,119.4l-4,8.1l8.2-4.7L275.7,119.4z" class="st35"/><path d="M435.7,474.6l0.1,1.6h-9L414,244.1h12.6L435.7,474.6z" class="st20"/><path d="M43.6,244.1h12.6L43.4,476.3h-9L43.6,244.1z" class="st20"/><path d="M445.8,237.9H23.5c-2.1,0-3.8-1.7-3.8-3.8v-6.6c0-2.1,1.7-3.8,3.8-3.8h422.3c2.5,0,4.6,2.1,4.6,4.6v5	C450.4,235.8,448.3,237.9,445.8,237.9z" class="st20"/><path d="M28.5,249.8h413.1v-11.9H28.5V249.8z" class="st20"/><linearGradient id="SVGID_30_" x1="130.539" x2="211.497" y1="601.796" y2="457.593" gradientTransform="matrix(1 0 0 1 0 -324)" gradientUnits="userSpaceOnUse"><stop offset="0" style="stop-color:#1d262d"/><stop offset="1" style="stop-color:#303941"/><stop offset="1" style="stop-color:#143a56"/></linearGradient><path d="M200.9,155l17.8,62.5l35.4,1.6v4.4h-129L106.4,155H200.9z" class="st36"/><path d="M194.8,155l18.9,68.5H125L106.4,155H194.8z" class="st37"/><linearGradient id="SVGID_31_" x1="254.154" x2="297.254" y1="406.9" y2="406.9" gradientTransform="matrix(1 0 0 1 0 -324)" gradientUnits="userSpaceOnUse"><stop offset="0" style="stop-color:#eea281"/><stop offset=".246" style="stop-color:#ee9c7b"/><stop offset=".582" style="stop-color:#ed8a6c"/><stop offset=".969" style="stop-color:#ec6e52"/><stop offset="1" style="stop-color:#ec6b50"/></linearGradient><path d="M294.1,69.5c-0.1,0.2-9,17.9-18.9,21.7c-5.5,2.1-10.8,1.7-14,1.1c-0.3-1.7-1.7-3-3.5-3c-2,0-3.5,1.6-3.5,3.5	s1.6,3.5,3.5,3.5c0.8,0,1.5-0.3,2.1-0.7c1.6,0.3,3.9,0.7,6.5,0.7c3,0,6.6-0.4,10.2-1.9c11.2-4.3,20.4-22.7,20.8-23.4L294.1,69.5z" class="st38"/><path d="M294.1,67.7c-0.1,0.2-9,17.9-18.9,21.7c-5.5,2.1-10.8,1.7-14,1.1c-0.3-1.7-1.7-3-3.5-3c-2,0-3.5,1.6-3.5,3.5	c0,2,1.6,3.5,3.5,3.5c0.8,0,1.5-0.3,2.1-0.7c1.6,0.3,3.9,0.7,6.5,0.7c3,0,6.6-0.4,10.2-1.9c11.2-4.3,20.4-22.7,20.8-23.4L294.1,67.7	z" class="st30"/><path d="M311.6,69.9c-1.1,8.2-7.7,14.1-14.7,13.2c-7-1-11.8-8.4-10.7-16.7c1.1-8.2,7.7-14.1,14.7-13.2	C307.9,54.3,312.7,61.7,311.6,69.9z" class="st28"/><path d="M309,70.1c-0.8,5.8-5.4,9.9-10.3,9.3c-4.9-0.7-8.3-5.9-7.5-11.7s5.4-9.9,10.3-9.3	C306.4,59.1,309.8,64.3,309,70.1z" class="st3"/><path d="M307.6,69.9c-0.7,4.9-4.6,8.3-8.7,7.8c-4.1-0.6-7-5-6.3-9.8s4.6-8.3,8.7-7.8C305.4,60.7,308.3,65.1,307.6,69.9z" class="st1"/></svg>